<?xml version="1.0" encoding="utf-8"?>
<!-- Generator: Adobe Illustrator 17.1.0, SVG Export Plug-In . SVG Version: 6.00 Build 0)  -->
<!DOCTYPE svg PUBLIC "-//W3C//DTD SVG 1.1//EN" "http://www.w3.org/Graphics/SVG/1.1/DTD/svg11.dtd">
<svg version="1.1" id="Слой_1" xmlns="http://www.w3.org/2000/svg" xmlns:xlink="http://www.w3.org/1999/xlink" x="0px" y="0px"
	 viewBox="0 0 427.2 92.1" enable-background="new 0 0 427.2 92.1" xml:space="preserve">
<g>
	<g>
		<path fill="#333333" d="M296.8,52.9c-3.1,0-6.2,0-9.4,0c-0.3,0-0.4,0.1-0.4,0.4c0.5,4,2.9,7,6.9,7.9c3.1,0.7,6,0.1,8.7-1.5
			c0.5-0.3,0.9-0.5,1.5-0.6c0.8-0.2,1.4,0,1.9,0.6c0.6,0.8,1.2,1.6,1.5,2.6c0.3,1,0,1.9-0.9,2.5c-1.9,1.3-4,2.2-6.3,2.8
			c-2.1,0.5-4.2,0.7-6.4,0.5c-4.9-0.5-8.9-2.5-11.9-6.5c-1.5-2.1-2.4-4.4-2.8-7c-0.3-1.8-0.3-3.6-0.1-5.3c0.6-4.5,2.5-8.3,6.3-11
			c1.7-1.2,3.6-2,5.7-2.4c2.1-0.4,4.3-0.5,6.4-0.2c4.4,0.7,7.7,3.1,9.6,7.2c0.9,1.8,1.3,3.7,1.4,5.7c0,0.5,0.1,1.1,0.1,1.6
			c0,1.6-1.2,2.8-2.7,2.8C303,52.9,299.9,52.9,296.8,52.9z M294.2,48.2c2.2,0,4.4,0,6.5,0c0.3,0,0.4-0.1,0.4-0.4
			c-0.1-0.7-0.2-1.5-0.4-2.2c-0.5-1.5-1.3-2.7-2.7-3.5c-1.3-0.7-2.6-0.9-4.1-0.8c-1.9,0.2-3.5,1-4.7,2.5c-1,1.2-1.5,2.5-1.9,4
			c-0.1,0.4-0.1,0.4,0.3,0.4C289.9,48.2,292,48.2,294.2,48.2z"/>
		<path fill="#333333" d="M224,42c0.2-0.3,0.3-0.6,0.5-0.8c1.9-2.9,4.5-4.8,7.9-5.5c2.5-0.5,5-0.4,7.5,0.5c2.6,0.9,4.2,2.7,5.2,5.2
			c0.7,1.9,0.9,4,0.9,6c0,5.7,0,11.4,0,17.1c0,0.3,0,0.7-0.1,1c-0.2,1-0.8,1.6-1.9,1.7c-1.3,0.1-2.6,0.1-3.9,0
			c-1.3-0.1-1.9-0.9-2-2.3c0-0.2,0-0.4,0-0.7c0-5.4,0-10.7,0-16.1c0-1.1-0.1-2.3-0.6-3.3c-0.6-1.4-1.6-2.2-3.1-2.4
			c-3-0.4-5.6,0.5-7.6,2.7c-1.2,1.3-1.9,3-2.3,4.7c-0.2,1.1-0.3,2.2-0.3,3.3c0,3.7,0,7.5,0,11.2c0,0.4,0,0.7-0.1,1.1
			c-0.2,0.9-0.8,1.5-1.7,1.6c-1.4,0.2-2.8,0.2-4.3,0c-0.9-0.1-1.5-0.8-1.7-1.7c0-0.3-0.1-0.7-0.1-1c0-8.5,0-17,0-25.5
			c0-0.4,0-0.9,0.1-1.3c0.3-0.9,0.9-1.5,1.8-1.5c1.2-0.1,2.3-0.1,3.5,0c1,0.1,1.8,0.8,1.9,1.9c0.1,1.2,0.1,2.4,0,3.6
			C224,41.7,223.9,41.8,224,42z"/>
		<path fill="#333333" d="M265.5,49.8c0,1.7-0.1,3.7,0,5.8c0.1,1.4,0.5,2.7,1.5,3.7c0.8,0.7,1.7,1.1,2.7,1.3
			c0.5,0.1,1.1,0.2,1.6,0.3c0.9,0.2,1.5,0.7,1.6,1.7c0.1,1,0.1,2.1,0,3.1c-0.1,1.1-0.8,1.7-1.9,1.9c-1.3,0.2-2.5,0.1-3.8-0.1
			c-2-0.3-3.9-1-5.5-2.2c-2-1.5-3.2-3.4-3.8-5.8c-0.3-1.1-0.4-2.3-0.4-3.5c0-4.3,0-8.5,0-12.8c0-0.4,0-0.4-0.4-0.4
			c-0.6,0-1.1,0-1.7,0c-1.1-0.1-1.8-0.7-2-1.8c-0.1-0.8-0.1-1.7,0-2.5c0.2-1.2,1-1.8,2.3-1.9c0.6,0,1.1,0,1.7,0
			c0.2,0,0.3-0.1,0.3-0.3c0-2,0-4,0-6c0-0.4,0-0.7,0.1-1c0.3-1,1-1.5,2-1.6c1.1-0.1,2.2-0.1,3.2,0c1.2,0.1,2,0.8,2.2,2.1
			c0,0.2,0,0.5,0,0.7c0,1.9,0,3.8,0,5.7c0,0.3,0.1,0.4,0.4,0.4c1.4,0,2.7,0,4.1,0c0.4,0,0.7,0,1,0.1c0.9,0.3,1.4,0.9,1.6,1.8
			c0.1,0.9,0.2,1.8-0.1,2.8c-0.2,0.8-0.8,1.3-1.7,1.4c-0.3,0.1-0.6,0.1-1,0.1c-1.3,0-2.6,0-3.8,0c-0.5,0-0.5,0-0.5,0.5
			C265.5,45.2,265.5,47.3,265.5,49.8z"/>
		<path fill="#333333" d="M205.9,51.7c0,4.3,0,8.5,0,12.8c0,0.4,0,0.8-0.1,1.2c-0.3,0.9-0.9,1.4-1.8,1.5c-1.4,0.1-2.7,0.2-4.1,0
			c-0.9-0.1-1.5-0.8-1.7-1.7c-0.1-0.3-0.1-0.7-0.1-1c0-8.6,0-17.1,0-25.7c0-0.4,0-0.7,0.1-1.1c0.2-1,1-1.6,2-1.7
			c1.1-0.1,2.3-0.1,3.4,0c1.3,0.1,2.1,0.8,2.2,2.1c0,0.2,0,0.5,0,0.7C205.9,43.2,205.9,47.5,205.9,51.7z"/>
		<path fill="#333333" d="M202.1,23.9c0.6,0,1.1,0,1.7,0c1.2,0.1,2,0.8,2.1,2c0.1,0.9,0.1,1.9,0,2.8c-0.1,1.2-0.7,1.8-1.9,2
			c-1.3,0.2-2.7,0.1-4,0c-0.9-0.1-1.5-0.6-1.7-1.5c-0.2-1.2-0.3-2.5,0-3.7c0.2-0.9,0.9-1.5,1.9-1.5
			C200.8,23.9,201.4,23.9,202.1,23.9C202.1,23.9,202.1,23.9,202.1,23.9z"/>
		<path fill="#333333" d="M384.4,40.5c-0.1-0.8-0.1-1.7-0.1-2.5c0-0.7,0.4-1.2,1-1.5c0.4-0.2,0.8-0.3,1.2-0.3c0.9,0,1.8,0,2.7,0
			c1.3,0.1,2,0.8,2.2,2.1c0,0.2,0,0.5,0,0.7c0,12.6,0,25.1,0,37.7c0,0.4,0,0.9-0.1,1.3c-0.2,0.9-0.9,1.5-1.8,1.5
			c-1.4,0.1-2.7,0.2-4.1,0c-0.9-0.1-1.5-0.8-1.7-1.7c0-0.3-0.1-0.6-0.1-0.9c0-4,0-7.9,0-11.9c0-0.6,0.1-1.2,0.1-1.7
			c0-0.1,0.1-0.2,0-0.3c-0.1,0-0.1,0.1-0.2,0.2c-1.4,2.3-3.5,3.7-6,4.4c-3,0.8-6,0.6-8.8-0.7c-2.6-1.1-4.5-3-5.9-5.4
			c-1.4-2.4-2.1-5.1-2.3-7.9c-0.1-1.8-0.1-3.6,0.2-5.4c0.6-3.8,2.1-7.2,5.2-9.7c2.6-2.1,5.6-3.1,8.9-3.1c2.4,0,4.6,0.6,6.6,2
			c1.1,0.8,2,1.7,2.7,2.9C384.2,40.3,384.3,40.4,384.4,40.5z M383.9,51.8c0-2.1-0.4-4-1.4-5.9c-1.7-3.2-4.7-4.3-7.9-3.7
			c-2.3,0.5-3.9,1.9-5,3.9c-0.7,1.3-1.1,2.8-1.2,4.3c-0.2,2.4,0,4.7,1.1,6.8c1.6,3.3,4.6,4.8,8.1,4.1c2.4-0.4,4.1-1.9,5.2-4
			C383.6,55.6,383.9,53.7,383.9,51.8z"/>
		<path fill="#333333" d="M420,62.2c-0.1,0.2-0.2,0.4-0.4,0.6c-1.6,2.4-3.7,4.1-6.5,4.9c-1.4,0.4-2.8,0.5-4.2,0.3
			c-2-0.2-3.9-0.8-5.5-2.1c-2.1-1.6-3.3-3.7-3.5-6.3c-0.1-1.7,0.1-3.3,0.8-4.8c0.8-1.7,2.1-2.9,3.7-3.9c1.7-1,3.5-1.6,5.4-2
			c3-0.7,6-0.8,9-0.8c0.4,0,0.4,0,0.4-0.4c0-1-0.1-2-0.5-2.9c-0.6-1.4-1.7-2.2-3.1-2.6c-1.9-0.5-3.7-0.3-5.6,0.2
			c-1,0.3-2,0.7-2.9,1.2c-0.5,0.2-1,0.4-1.5,0.4c-0.7,0-1.3-0.2-1.7-0.8c-0.5-0.8-1-1.6-1.3-2.5c-0.3-1,0-1.8,0.8-2.4
			c0.8-0.6,1.8-0.9,2.7-1.3c2.8-1.1,5.7-1.6,8.7-1.5c2.2,0.1,4.4,0.5,6.4,1.6c2.7,1.4,4.4,3.7,5.2,6.6c0.4,1.4,0.6,2.9,0.6,4.3
			c0,5.6,0,11.2,0,16.7c0,0.4,0,0.7-0.1,1.1c-0.2,0.9-0.8,1.5-1.7,1.6c-1.1,0.2-2.3,0.2-3.5,0c-1.2-0.1-1.9-0.9-1.9-2.2
			c0-0.9-0.1-1.8,0.1-2.7C420.1,62.3,420.1,62.3,420,62.2z M419.5,53.8c0-0.3,0-0.5,0-0.8c0-0.2-0.1-0.3-0.3-0.3
			c-2.1,0-4.3,0-6.4,0.5c-1.2,0.3-2.4,0.7-3.5,1.4c-1.3,0.9-1.9,2.2-1.7,3.7c0.2,1.6,1,2.7,2.5,3.3c2.1,0.8,4.1,0.5,5.9-0.8
			C418.3,59.1,419.4,56.7,419.5,53.8z"/>
		<path fill="#333333" d="M325.3,43.7c0.2-0.5,0.3-0.9,0.5-1.3c1-2.2,2.5-4.1,4.6-5.4c1.3-0.8,2.7-1.2,4.2-1.2
			c1.3,0.1,1.9,0.6,2,1.9c0.1,1.2,0.1,2.5,0,3.7c-0.1,1-0.9,1.7-1.9,1.9c-0.6,0.1-1.2,0.1-1.8,0.1c-2.1,0.3-3.7,1.4-5,3.1
			c-1,1.4-1.6,2.9-1.9,4.5c-0.3,1.3-0.4,2.6-0.4,3.9c0,3.2,0,6.4,0,9.5c0,0.4,0,0.8-0.1,1.2c-0.2,0.9-0.9,1.5-1.8,1.5
			c-1.3,0.1-2.7,0.2-4,0c-0.9-0.1-1.5-0.8-1.7-1.7c-0.1-0.3-0.1-0.7-0.1-1c0-8.6,0-17.1,0-25.7c0-0.4,0-0.7,0.1-1.1
			c0.2-1,1-1.6,2-1.7c1.1-0.1,2.2-0.1,3.2,0c1.2,0.1,2.1,0.9,2.1,2.1c0.1,1.7,0.1,3.4-0.1,5C325.2,43.4,325.2,43.5,325.3,43.7z"/>
		<path fill="#333333" d="M351.6,51.7c0,4.3,0,8.5,0,12.8c0,0.4,0,0.8-0.1,1.2c-0.2,0.9-0.9,1.5-1.8,1.5c-1.4,0.1-2.7,0.2-4.1,0
			c-0.9-0.1-1.5-0.8-1.7-1.7c0-0.3-0.1-0.7-0.1-1c0-8.5,0-17.1,0-25.6c0-0.4,0-0.8,0.1-1.2c0.3-0.9,0.9-1.5,1.8-1.5
			c1.2-0.1,2.5-0.1,3.7,0c1.1,0.1,1.8,0.9,2,2.1c0,0.2,0,0.5,0,0.7C351.6,43.2,351.6,47.5,351.6,51.7z"/>
		<path fill="#333333" d="M347.7,23.9c0.6,0,1.1,0,1.7,0c1.2,0.1,2,0.8,2.1,2.1c0.1,0.9,0.1,1.8,0,2.8c-0.1,1.2-0.7,1.9-1.9,2
			c-1.3,0.1-2.7,0.1-4,0c-0.9-0.1-1.5-0.6-1.7-1.5c-0.2-1.2-0.3-2.5,0-3.7c0.2-0.9,0.9-1.4,1.8-1.5
			C346.5,23.8,347.1,23.9,347.7,23.9z"/>
	</g>
	<g>
		<path fill="#FE5757" d="M141.8,17.6c-1.5-0.8-3-1.4-4.7-1.9c1.4-0.6,2.9-0.8,4.3-1.2c-1.2-0.7-2.3-1.2-3.5-1.7
			C133.4,11,128.8,9.8,124,9c-4.8-0.7-9.7-1-14.6-0.8c-0.6,0-1.2,0.1-1.9,0.1c0,0-0.1,0-0.2-0.1c1.1-1,2.5-1.4,3.6-2.3
			c-10.3-0.4-19.7,2.4-28.6,7.5c0.7-1.4,1.8-2.6,2.8-3.9c-0.7,0.1-1.3,0.3-1.9,0.4c-2.6,0.7-5.1,1.9-7.5,2.9
			c-2.7,1.2-5.5,2.3-8.5,2.8c-0.7,0.1-1.5,0.2-2.3,0.3c4.6,2.2,8,5.5,9.5,10.4c1.1,3.5,0.9,7.7,0,10.6c-0.2-0.3-0.2-0.6-0.2-0.9
			c-0.4-2.1-1-4.1-2.1-5.9c-0.8-1.2-1.7-2.3-3.1-2.9c0,0-0.1,0-0.2-0.1c0.9-0.5,1.8-0.8,2.8-1c0-0.2-0.2-0.3-0.3-0.4
			c-2.5-2.9-5.5-5.4-8.7-7.3l0,0c-0.1,0-0.1-0.1-0.1-0.1c-0.4-0.2-0.7-0.4-1.1-0.7c-2.9-1.7-5.4-2.7-7-3.7c-0.4-0.2-0.8-0.4-0.9-0.8
			c-0.7-2-1.5-4-2.5-5.9c-1.1-2.1-2.1-4.3-3.9-5.9c-2.5-2.3-4.5-2-5.8,1.2c-1.7,4.2-4,8.2-5.3,12.7c-0.1,0.2-0.2,0.4-0.3,0.5
			c-8.3,2.5-14.6,7.2-18.5,15c-0.7,1.4-1.4,2.8-3.2,3.4C9.6,35.5,5.6,38,1.5,40.1c-1.8,0.9-1.9,2-0.7,3.6c1.1,1.6,9.5,8.1,12.9,9.2
			c1.2,0.4,2.5,1,3.3,2.1l0,0c0.2,0.3,0.5,0.6,0.6,1c0.3,0.8,0.7,1.5,1.1,2.3c0,0,0,0,0,0c1.5,3.4,3.3,6.7,5.5,9.8
			c0.3,0.5,0.7,1,1.2,1.4c0.2,0.2,0.4,0.3,0.6,0.5c0.6-0.7,1-1.5,1.6-2.2c0.1,0,0.1,0,0.1,0c1.1,2.1,2.9,3.3,5.1,4.1
			c3.2,1.2,6.6,1.6,10,1.3c0.3,0,0.5-0.1,0.8-0.2c-0.1,0.2-2,3.9-10.7,2.8c-0.3,2,3.9,7.6,9.4,9.4c5.7,1.8,15,3,22.4-0.6
			c3-1.5,4.5-3,3.6-6.2c-0.6-2.1-1.6-3.8-3.1-5.4c-1.2-1.2-3.5-2-5.2-2.2c-5.3-0.6-11.2,1.9-13,7c-0.2-2.5,0.4-5,3.8-7.5
			c3.1-2.2,6.3-3,10.3-2.7c1.2,0.1,2.3,0.3,3.5,0.7c-1.3-4.6-0.9-9.2,0-13.9c1.2,1,2.3,1.9,3.6,2.9c-0.2-4.5,0.8-8.6,3.5-12.2
			c2.6-3.5,5.9-6.2,10.1-8c-0.1,3.6-0.3,7.2,1.1,10.7c0.4-1.4,0.8-2.7,1.3-4c2.4-5.8,6-10.6,11.4-13.8c3.5-2.1,7.3-3.2,11.3-3.8
			c3.4-0.4,6.7-0.4,10.1-0.1c0.1,0,0.2,0,0.3,0.1c-1.1,0.2-2.2,0.3-3.4,0.5c-11.4,2-20,7.9-25.7,18c-2.2,4-3.9,8.2-5.3,12.6
			c0,0.2-0.1,0.3-0.2,0.5c-1.6-1.8-2.6-4-3.4-6.2c-0.8-2.2-1.2-4.5-1.2-6.9c-0.2,0-0.3,0.1-0.5,0.3c-2.6,2-4.2,4.8-5.2,7.8
			c-1,2.9-1.4,5.9-1.5,9c0,0.1,0,0.3,0,0.5c-1.4-0.8-2.8-1.7-4.3-2.3c-0.1,0.4-0.2,0.7-0.2,1.1c-0.1,4,0.5,7.9,1.8,11.6
			c1.2,3.3,3.3,6,5.9,8.4c3.6,3.3,7.7,5.6,12.3,7.2c17,5.8,38.3,4.3,49.7-0.7C173.5,70.8,165.3,29.7,141.8,17.6z"/>
		<g id="XMLID_1_">
			<g>
				<path fill="#FFFFFF" d="M136,35.8c-5.2-0.3-10,0.5-11.8,1.2c1.2-2.1,2.6-3.5,5.9-3.8C131.6,33.1,134.9,33.9,136,35.8z"/>
				<path fill="#FFFFFF" d="M130.1,31c-8.5-0.1-13.9,1.2-20.2,4.2c0.7-1.8,3.5-5.1,8.5-6.3C121.7,28,127.2,28.5,130.1,31z"/>
				<path fill="#FFFFFF" d="M97.9,61.6c1.5,2.7,4,4.2,6.7,5.4c2.8,1.2,5.8,1.8,8.8,2.3c2.2,0.3,4.4,0.5,6.6,0.5
					c5.6,0,10.8-1.4,15.8-3.7c3.3-1.5,6.3-3.5,8.8-6c0.4-0.4,0.8-0.9,1.2-1.3c-0.2,0.9-0.7,1.8-1.1,2.5c-1.9,3-4.4,5.5-7.3,7.5
					c-3.8,2.8-7.9,4.7-12.5,5.7c-2.6,0.5-5.2,0.6-7.8,0.3c-3.2-0.4-6.4-1-9.5-2.2c-2.4-0.9-4.6-2-6.4-3.8c-1.8-1.7-3-3.6-3.3-6
					C97.8,62.4,97.7,62,97.9,61.6C97.8,61.6,97.9,61.6,97.9,61.6z"/>
				<path fill="#FFFFFF" d="M92,61.7c1.1,3.7,3.3,6.7,6,9.4c-0.8,0-1.4-0.1-2.1-0.2c-2.2-0.4-4.3-1.2-5.8-3
					c-1.3-1.6-2.1-3.5-2.3-5.6c-0.4-3.3,0.1-6.5,1.5-9.6c0.4-0.8,0.9-1.6,1.6-2.2C90.7,54.3,90.9,58,92,61.7z"/>
				<path fill="#FFFFFF" d="M49.8,11.6c1.7,5,0.4,7.1-0.7,7.1c-3,0-5.5-0.7-6.1-2.7c-1.1-3.4,0.9-12.1,1.7-12.3
					C45.5,3.5,49,9,49.8,11.6z"/>
				<path fill="#FFFFFF" d="M17.2,42.5c1.9,0.9,2.3,3.4,1.9,6.4c-0.1,1.1-2.4,2.1-7.1-0.2c-2.4-1.2-7.4-5.3-7.2-6.1
					C5,41.8,14,41,17.2,42.5z"/>
			</g>
			<g>
			</g>
		</g>
		<path fill="#333333" d="M52.7,42.4c0.1,0,0.3,0.1,0.4,0.1c0.6,0,1.2-0.3,1.5-0.9c0.2-0.5,0.4-1,0.5-1.5c0.6-2.6,1.9-5.3,2.5-6.7
			c0.2-0.4,0.3-0.6,0.3-0.8c0.1-0.2,0.1-0.5,0-0.6c-0.1-0.1-0.4-0.1-0.6,0c-1,0.3-1.7,0.9-2.4,1.5c-0.2,0.2-0.4,0.4-0.6,0.6
			c-0.1,0.1-0.2,0.2-0.3,0.3l0,0c-1.6,2.1-2.3,3.5-2.5,6.3C51.7,41.5,52.1,42.2,52.7,42.4z"/>
		<path fill="#333333" d="M39.8,51.9C39.8,51.9,39.8,51.9,39.8,51.9c-2.9,0.1-4.3,0.7-6.5,2.1l0,0c-0.1,0.1-0.2,0.2-0.3,0.3
			c-0.2,0.2-0.4,0.3-0.6,0.5c-0.7,0.6-1.4,1.3-1.7,2.3c-0.1,0.2-0.1,0.5,0,0.6c0.1,0.1,0.2,0.1,0.3,0.1s0.2,0,0.3-0.1
			c0.1,0,0.4-0.1,0.8-0.3c1.4-0.5,4.2-1.7,6.9-2.1c0.5-0.1,1-0.2,1.5-0.4c0.8-0.3,1.2-1.2,1-1.9C41.2,52.3,40.6,51.9,39.8,51.9z"/>
		<path fill="#333333" d="M59.2,54.8c-0.1-0.2-0.2-0.3-0.4-0.4c-0.5-0.2-0.9,0.2-1.1,0.6c-0.2,0.5-0.4,1-0.6,1.3
			c-0.4,0.7-0.9,0.1-1.1-0.1c-0.1-0.1-0.4-0.5-0.7-0.8c-0.2-0.2-0.3-0.3-0.3-0.3c-0.4-0.4-0.2-1.1,0-1.7c0-0.2,0.1-0.3,0.1-0.4
			c0-0.2,0.1-0.4,0.2-0.7c0.1-0.3,0.2-0.6,0.2-0.9c0.1-0.4,0-1.1-0.4-1.4c-0.4-0.3-1-0.2-1.3,0.1c-0.2,0.3-0.4,0.6-0.6,0.9
			c-0.3,0.5-0.7,1.2-1.4,1.8c-0.7,0.7-1.4,1-1.9,1.3c-0.3,0.2-0.7,0.3-0.9,0.5c-0.4,0.3-0.5,0.8-0.2,1.2c0.2,0.5,0.9,0.6,1.3,0.5
			c0.3,0,0.6-0.1,0.9-0.2c0.3,0,0.5-0.1,0.7-0.1c0.1,0,0.3,0,0.4-0.1c0.6-0.1,1.4-0.3,1.7,0.1c0,0,0.9,1,1,1.1
			c0.2,0.2,0.8,0.7,0.1,1.1c-0.3,0.2-0.8,0.3-1.4,0.5c-0.5,0.2-0.9,0.6-0.7,1.1c0.1,0.2,0.2,0.3,0.4,0.4c0.1,0.1,0.3,0.1,0.4,0.1
			c1-0.1,2.9-0.8,3.7-1.6c0.8-0.7,1.4-2.1,1.8-3.2C59.2,55.4,59.3,55.1,59.2,54.8z"/>
	</g>
</g>
</svg>
